<svg xmlns="http://www.w3.org/2000/svg" viewBox="0, 0, 512, 512" preserveAspectRatio="xMidYMid meet" style="transform: rotateY(180deg)">
	<g transform="rotate(-180,256,256)" fill="#1b1e32" stroke="none">
		<path d="M100.4 455.2 c-3.7 -1.8 -10.4 -8.5 -10.4 -10.5 0 -.4 -3.4 -4.1 -7.5 -8.1 -9.6 -9.3 -12.8 -15.9 -13.1 -26.7 l-.2 -7.6 -4.9 -4.9 c-5.4 -5.5 -10.6 -15.0 -10.1 -18.6 0.4 -3.2 3.5 -3.4 10.9 -.8 8.8 3.0 19.5 5.1 26.7 5.1 11.3 0.1 17.8 -6.0 19.6 -18.3 0.9 -5.7 -.8 -15.8 -3.5 -21.0 -5.2 -10.2 0.2 -18.8 11.7 -18.8 l3.7 0 -.7 -10.1 c-.6 -10.4 0.6 -37.6 2.5 -51.4 2.5 -19.1 9.1 -36.2 18.5 -47.8 6.3 -7.8 20.4 -19.5 41.2 -34.2 18.9 -13.3 19.5 -13.9 26.2 -31.0 5.2 -13.0 9.0 -19.4 17.0 -27.9 4.2 -4.5 8.1 -9.3 8.7 -10.8 2.6 -5.9 3.6 -19.1 2.4 -30.4 -.6 -6.0 -1.6 -12.6 -2.1 -14.6 -1.2 -4.1 -2.4 -4.7 -14.5 -7.2 -19.9 -4.0 -37.4 -16.6 -23.1 -16.6 3.9 0 18.2 1.3 27.4 2.5 2.8 0.3 3.3 0.1 2.7 -1.3 -.3 -.9 -.9 -3.8 -1.2 -6.4 -.8 -6.4 0.4 -6.3 13.1 1.1 14.2 8.2 13.6 8.2 20.1 2.0 l5.5 -5.1 1.0 2.6 c1.5 4.1 1.2 7.8 -1.0 12.9 -1.1 2.5 -2.5 6.7 -3.0 9.4 -.5 2.6 -1.6 8.0 -2.5 11.8 -2.9 13.4 -2.9 23.8 -.1 39.5 0.3 1.4 1.0 9.0 1.6 16.8 1.1 14.0 3.0 26.8 4.4 29.0 0.3 0.6 0.2 1.3 -.3 1.7 -1.6 0.9 3.9 11.7 7.6 15.0 21.0 18.4 41.0 45.6 44.9 60.8 l.7 2.9 3.6 -3.5 c4.5 -4.3 7.1 -5.7 10.9 -5.7 3.4 0 5.9 2.5 6.8 6.7 l.6 3.1 7.2 -7.2 c19.4 -19.7 32.2 -17.7 33.4 5.2 l.5 8.3 3.0 -3.7 c3.7 -4.4 11.2 -9.4 14.3 -9.4 1.3 0 3.5 1.0 5.0 2.3 2.2 1.9 2.8 3.4 3.3 8.8 l.6 6.4 4.2 -6.1 c5.1 -7.5 15.4 -16.9 20 -18.5 4.6 -1.5 8.7 0.2 10.7 4.6 1.7 3.6 2.2 19.7 0.7 27.0 l-.7 4.0 6.0 -6.2 c6.5 -6.5 10.2 -8.3 14.2 -6.4 3.1 1.4 4.3 4.6 5.6 14.1 2.0 15.9 -2.9 48.3 -9.9 65.0 -.3 0.8 -.7 2.0 -.8 2.5 -.6 2.3 -4.7 11.9 -7.1 16.8 -7.0 13.7 -19.2 28.3 -29.7 35.6 -7.9 5.4 -20.2 10.6 -30.7 12.9 -5.1 1.1 -21.5 0.4 -26.5 -1.2 -6.7 -2.1 -6.6 -2.1 -4.9 1.9 2.0 4.9 1.8 7.8 -1.0 10.4 -7.5 7.1 -31.3 -2.5 -47.8 -19.1 -12.2 -12.3 -19.8 -24.4 -24.6 -39.3 -3.4 -10.5 -5.6 -25.3 -5.1 -34.3 l.4 -6.2 -3.4 -.6 c-3.6 -.7 -27.8 0.1 -32.1 1.1 -1.4 0.2 -4.1 0.8 -6.0 1.1 -22.3 3.9 -40.3 16.1 -48.4 33.0 -3.4 7.0 -16.6 41.5 -16.6 43.3 0 2.4 -8.0 19.8 -14.3 31.0 -4.5 8.2 -12.1 16.7 -19.4 21.9 -1.8 1.3 -3.3 3.1 -3.3 4.0 0 1.0 -.7 2.8 -1.6 4.1 -1.3 1.9 -2.4 2.2 -5.5 1.9 -3.4 -.3 -4.0 0 -5.0 2.4 -1.3 3.3 -4.4 4.3 -9.9 3.4 -2.9 -.5 -4.1 -.2 -4.8 0.9 -1.3 2.5 -7.2 2.8 -11.8 0.7z"/>
	</g>
</svg>
