<svg width="512" height="512" viewBox="0 0 512 512" fill="none" xmlns="http://www.w3.org/2000/svg">
<rect width="512" height="512" fill="white"/>
<path d="M133.138 107.698C130.013 109.218 124.356 114.876 124.356 116.564C124.356 116.902 121.484 120.027 118.022 123.404C109.916 131.258 107.213 136.831 106.96 145.951L106.791 152.369L102.653 156.507C98.0933 161.151 93.7022 169.173 94.1244 172.213C94.4622 174.916 97.08 175.084 103.329 172.889C110.76 170.356 119.796 168.582 125.876 168.582C135.418 168.498 140.907 173.649 142.427 184.036C143.187 188.849 141.751 197.378 139.471 201.769C135.08 210.382 139.64 217.644 149.351 217.644H152.476L151.884 226.173C151.378 234.956 152.391 257.924 153.996 269.578C156.107 285.707 161.68 300.147 169.618 309.942C174.938 316.529 186.844 326.409 204.409 338.822C220.369 350.053 220.876 350.56 226.533 365C230.924 375.978 234.133 381.382 240.889 388.56C244.436 392.36 247.729 396.413 248.236 397.68C250.431 402.662 251.276 413.809 250.262 423.351C249.756 428.418 248.911 433.991 248.489 435.68C247.476 439.142 246.462 439.649 236.244 441.76C219.44 445.138 204.662 455.778 216.738 455.778C220.031 455.778 232.107 454.68 239.876 453.667C242.24 453.413 242.662 453.582 242.156 454.764C241.902 455.524 241.396 457.973 241.142 460.169C240.467 465.573 241.48 465.489 252.204 459.24C264.196 452.316 263.689 452.316 269.178 457.551L273.822 461.858L274.667 459.662C275.933 456.2 275.68 453.076 273.822 448.769C272.893 446.658 271.711 443.111 271.289 440.831C270.867 438.636 269.938 434.076 269.178 430.867C266.729 419.551 266.729 410.769 269.093 397.511C269.347 396.329 269.938 389.911 270.444 383.324C271.373 371.502 272.978 360.693 274.16 358.836C274.413 358.329 274.329 357.738 273.907 357.4C272.556 356.64 277.2 347.52 280.324 344.733C298.058 329.196 314.947 306.227 318.24 293.391L318.831 290.942L321.871 293.898C325.671 297.529 327.867 298.711 331.076 298.711C333.947 298.711 336.058 296.6 336.818 293.053L337.324 290.436L343.404 296.516C359.787 313.151 370.596 311.462 371.609 292.124L372.031 285.116L374.564 288.24C377.689 291.956 384.022 296.178 386.64 296.178C387.738 296.178 389.596 295.333 390.862 294.236C392.72 292.631 393.227 291.364 393.649 286.804L394.156 281.4L397.702 286.551C402.009 292.884 410.707 300.822 414.591 302.173C418.476 303.44 421.938 302.004 423.627 298.289C425.062 295.249 425.484 281.653 424.218 275.489L423.627 272.111L428.693 277.347C434.182 282.836 437.307 284.356 440.684 282.751C443.302 281.569 444.316 278.867 445.413 270.844C447.102 257.418 442.964 230.058 437.053 215.956C436.8 215.28 436.462 214.267 436.378 213.844C435.871 211.902 432.409 203.796 430.382 199.658C424.471 188.089 414.169 175.76 405.302 169.596C398.631 165.036 388.244 160.644 379.378 158.702C375.071 157.773 361.222 158.364 357 159.716C351.342 161.489 351.427 161.489 352.862 158.111C354.551 153.973 354.382 151.524 352.018 149.329C345.684 143.333 325.587 151.44 311.653 165.458C301.351 175.844 294.933 186.062 290.88 198.644C288.009 207.511 286.151 220.009 286.573 227.609L286.911 232.844L284.04 233.351C281 233.942 260.564 233.267 256.933 232.422C255.751 232.253 253.471 231.747 251.867 231.493C233.036 228.2 217.836 217.898 210.996 203.627C208.124 197.716 196.978 168.582 196.978 167.062C196.978 165.036 190.222 150.342 184.902 140.884C181.102 133.96 174.684 126.782 168.52 122.391C167 121.293 165.733 119.773 165.733 119.013C165.733 118.169 165.142 116.649 164.382 115.551C163.284 113.947 162.356 113.693 159.738 113.947C156.867 114.2 156.36 113.947 155.516 111.92C154.418 109.133 151.8 108.289 147.156 109.049C144.707 109.471 143.693 109.218 143.102 108.289C142.004 106.178 137.022 105.924 133.138 107.698V107.698Z" fill="#1B1E32"/>
</svg>
